<?xml version="1.0" encoding="UTF-8"?>
<svg width="40px" height="40px" viewBox="0 0 40 40" version="1.1" xmlns="http://www.w3.org/2000/svg" xmlns:xlink="http://www.w3.org/1999/xlink">
    <title>burger_menu</title>
    <g id="Page-1" stroke="none" stroke-width="1" fill="none" fill-rule="evenodd">
        <path d="M36,31.0208153 C36.5522847,31.0208153 37,31.4685305 37,32.0208153 C37,32.5731 36.5522847,33.0208153 36,33.0208153 L4,33.0208153 C3.44771525,33.0208153 3,32.5731 3,32.0208153 C3,31.4685305 3.44771525,31.0208153 4,31.0208153 L36,31.0208153 Z M36,19.0208153 C36.5522847,19.0208153 37,19.4685305 37,20.0208153 C37,20.5731 36.5522847,21.0208153 36,21.0208153 L4,21.0208153 C3.44771525,21.0208153 3,20.5731 3,20.0208153 C3,19.4685305 3.44771525,19.0208153 4,19.0208153 L36,19.0208153 Z M36,7.02081528 C36.5522847,7.02081528 37,7.46853053 37,8.02081528 C37,8.57310003 36.5522847,9.02081528 36,9.02081528 L4,9.02081528 C3.44771525,9.02081528 3,8.57310003 3,8.02081528 C3,7.46853053 3.44771525,7.02081528 4,7.02081528 L36,7.02081528 Z" id="Combined-Shape" fill="#FFFFFF"></path>
    </g>
</svg>