<?xml version="1.0" encoding="UTF-8"?>
<svg width="40px" height="40px" viewBox="0 0 40 40" version="1.1" xmlns="http://www.w3.org/2000/svg" xmlns:xlink="http://www.w3.org/1999/xlink">
    <title>burger_close</title>
    <g id="Page-1" stroke="none" stroke-width="1" fill="none" fill-rule="evenodd">
        <path d="M6.6862915,5.29289322 L19.9991847,18.606 L33.3137085,5.29289322 C33.7042328,4.90236893 34.3373978,4.90236893 34.7279221,5.29289322 C35.1184464,5.68341751 35.1184464,6.31658249 34.7279221,6.70710678 L21.4141847,20.02 L34.7279221,33.3345238 C35.1184464,33.7250481 35.1184464,34.358213 34.7279221,34.7487373 C34.3373978,35.1392616 33.7042328,35.1392616 33.3137085,34.7487373 L19.9991847,21.435 L6.6862915,34.7487373 C6.29576721,35.1392616 5.66260223,35.1392616 5.27207794,34.7487373 C4.88155365,34.358213 4.88155365,33.7250481 5.27207794,33.3345238 L18.5851847,20.02 L5.27207794,6.70710678 C4.88155365,6.31658249 4.88155365,5.68341751 5.27207794,5.29289322 C5.66260223,4.90236893 6.29576721,4.90236893 6.6862915,5.29289322 Z" id="Combined-Shape" fill="#FFFFFF"></path>
    </g>
</svg>