<?xml version="1.0" encoding="UTF-8"?>
<svg width="160px" height="64px" viewBox="0 0 160 64" version="1.1" xmlns="http://www.w3.org/2000/svg" xmlns:xlink="http://www.w3.org/1999/xlink">
    <title>token_set_two</title>
    <g id="Page-1" stroke="none" stroke-width="1" fill="none" fill-rule="evenodd">
        <g id="Group" transform="translate(7.000000, 3.000000)" fill="#FFFFFF">
            <path d="M122.989002,3.53227906 C128.32016,2.16494458 136.836984,0.800287214 141.835621,1.02427217 C143.878378,1.11529395 145.105839,1.47302292 145.81695,2.18413054 C146.525831,2.89356498 146.883115,4.11622391 146.975922,6.14971286 C147.042627,7.62680889 146.970679,9.50435612 146.760748,11.7304855 C146.359403,15.989323 145.509304,20.9234618 144.488428,24.9283084 C141.937575,34.9286568 139.879201,35.2911823 133.514115,30.3056207 C131.430866,28.6733637 128.920616,26.4385337 126.352473,23.9339848 L126.352473,23.9339848 L123.349409,26.9313452 L132.744107,36.3259973 C133.396433,36.97832 133.396433,38.0354442 132.744107,38.6876554 C132.091893,39.3395319 131.034317,39.3395319 130.382549,38.6876554 L130.382549,38.6876554 L120.985509,29.2907725 L118.62172,31.6501997 L125.658764,38.6872092 C126.311089,39.3395319 126.311089,40.3966562 125.658764,41.0488674 C125.006884,41.7011901 123.94942,41.7007439 123.29754,41.0488674 L123.29754,41.0488674 L116.257931,34.0092923 L113.89403,36.3682733 L118.574201,41.0484212 C119.226527,41.7007439 119.226527,42.7582028 118.574201,43.4105255 C117.922321,44.0628482 116.864857,44.0628482 116.212977,43.4105255 L116.212977,43.4105255 L111.530241,38.7281467 L108.36945,41.882899 L108.36945,56.3298173 C108.36945,57.1041717 107.836479,57.7769074 107.083203,57.9551584 C106.95459,57.9851643 106.826088,58 106.698813,58 C106.077497,58 105.493215,57.651864 105.205535,57.0767313 C102.135432,50.9368886 97.0635084,45.864544 90.9231896,42.7949015 C90.2303721,42.4479925 89.8670641,41.6710726 90.0447582,40.9172427 C90.2225639,40.1630782 90.8953028,39.6310024 91.6701072,39.6310024 L91.6701072,39.6310024 L105.897126,39.6310024 L109.168125,36.3657077 L104.40474,31.6023463 C103.752415,30.9500236 103.752415,29.8925647 104.40474,29.2406882 C105.056955,28.5883654 106.114084,28.5883654 106.76641,29.2406882 L106.76641,29.2406882 L111.53236,34.0066152 L113.896261,31.6476341 L106.76641,24.5178181 C106.114084,23.8650492 106.114084,22.8080365 106.76641,22.1557137 C107.418178,21.5038372 108.475754,21.5038372 109.12808,22.1557137 L109.12808,22.1557137 L116.260496,29.2882069 L118.623839,26.9286681 L109.12808,17.4323974 C108.475754,16.7806324 108.475754,15.7235082 109.12808,15.0711855 C109.780294,14.4189743 110.837424,14.4189743 111.489638,15.0711855 L111.489638,15.0711855 L120.98774,24.5692409 L123.992031,21.5705419 C121.566779,19.0785977 119.397305,16.6446575 117.786457,14.5993447 C114.519696,10.4529458 114.34546,8.93268136 114.644406,7.90745937 C114.992097,6.71268701 116.2557,5.25868106 122.989002,3.53227906 Z M105.029068,42.9713677 L97.5825358,42.9713677 C98.9972844,44.0144371 100.334173,45.1648141 101.584725,46.4153596 C102.835611,47.6657936 103.985994,49.0031221 105.029068,50.4174175 L105.029068,50.4174175 L105.029068,42.9713677 Z M143.418247,4.58237587 C143.044788,4.4687102 141.908461,4.24249431 139.009916,4.38627749 C133.985512,4.63558346 126.713662,5.85868857 121.917594,7.29217 C119.442593,8.03205658 118.39818,8.59369217 117.98646,8.87345028 C118.196838,9.38232447 118.838232,10.5893669 120.779482,12.9963129 C122.540695,15.1801662 124.950218,17.8223633 127.56376,20.4363392 C130.177303,23.0507612 132.819067,25.4602727 135.001704,27.2214772 C137.409108,29.1634981 138.615598,29.8044432 139.125033,30.014931 C139.40468,29.6032136 139.965984,28.5579133 140.706209,26.0829241 C142.139809,21.287772 143.364147,14.0150652 143.6139,8.99068543 C143.757684,6.09215497 143.531467,4.95538668 143.418247,4.58237587 Z M128.494953,9.0067481 C130.447804,7.05346093 133.626554,7.05346093 135.579851,9.0067481 C137.532813,10.9601468 137.532813,14.1383238 135.579851,16.0912764 C133.626554,18.0451212 130.447804,18.0451212 128.494953,16.0912764 C126.536303,14.1335273 126.536749,10.9644971 128.494953,9.0067481 Z M133.217847,11.3684062 C132.566413,10.7169759 131.507164,10.7174221 130.856177,11.3684062 C130.203405,12.0211752 130.203405,13.0772955 130.856177,13.7300644 C131.507499,14.3810486 132.566859,14.3810486 133.217847,13.7300644 C133.869169,13.0790802 133.869169,12.0198366 133.217847,11.3684062 Z" id="Combined-Shape"></path>
            <path d="M50.1785918,6.81316992 C49.455293,2.94062109 46.049877,0 41.9707031,0 C37.3667285,0 33.6210938,3.74563477 33.6210938,8.34960938 C33.6210938,9.90252539 34.0494844,11.4050098 34.8470391,12.7071035 L34.7508516,12.803625 C30.7196602,16.8349277 16.9606172,30.5939707 12.7066582,34.8465938 C11.4045645,34.0490391 9.90252539,33.6210938 8.34960938,33.6210938 C3.74563477,33.6210938 0,37.3667285 0,41.9707031 C0,46.049877 2.94062109,49.455293 6.81316992,50.1785918 C7.55027344,54.1337461 11.028832,57 15.0292969,57 C19.6332715,57 23.3789062,53.2543652 23.3789062,48.6503906 C23.3789062,47.0974746 22.9505156,45.5949902 22.1529609,44.2928965 L44.2928965,22.1529609 C45.5949902,22.9505156 47.0974746,23.3789062 48.6503906,23.3789062 C53.2543652,23.3789062 57,19.6332715 57,15.0292969 C57,10.9875293 54.0958945,7.54292578 50.1785918,6.81316992 Z M48.6503906,20.0390625 C46.5846973,20.0390625 44.7978809,18.7852852 44.0337246,16.978875 C43.6741348,16.1295527 42.6947813,15.732 41.8450137,16.0912559 C40.9956914,16.4505117 40.59825,17.4301992 40.9573945,18.2795215 C41.1966387,18.845291 41.496668,19.3767715 41.8502461,19.8725156 C40.5586172,21.1636992 20.0730176,41.6492988 18.7696992,42.9526172 C18.1369102,43.5854062 18.1152012,44.6042812 18.7204922,45.2631211 C19.5707051,46.1890371 20.0390625,47.3918262 20.0390625,48.6503906 C20.0390625,51.4126641 17.7915703,53.6601562 15.0292969,53.6601562 C12.2670234,53.6601562 10.0195312,51.4126641 10.0195312,48.6503906 C10.0195312,48.6243398 10.0169707,48.5990684 10.0156348,48.5734629 C10.0260996,47.9429004 10.1556855,47.3078848 10.4126309,46.7008125 C10.7718867,45.8514902 10.3744453,44.8718027 9.52512305,44.5125469 C8.67580078,44.152957 7.69555664,44.5503984 7.33630078,45.400166 C7.1471543,45.8471484 7.0010918,46.3033711 6.89276953,46.7639355 C4.83887695,46.1386055 3.33984375,44.2264336 3.33984375,41.9707031 C3.33984375,39.2084297 5.58733594,36.9609375 8.34960938,36.9609375 C9.60772852,36.9609375 10.8105176,37.4288496 11.7364336,38.2790625 C12.3952734,38.8839082 13.4132578,38.8621992 14.0460469,38.2303008 C16.3474219,35.9302617 35.6071875,16.6704961 38.2316367,14.0460469 C38.8826836,13.3937754 38.8839082,12.3352676 38.232082,11.6837754 L38.2272949,11.6789883 C37.4101465,10.7609766 36.9609375,9.58201172 36.9609375,8.34960938 C36.9609375,5.58733594 39.2084297,3.33984375 41.9707031,3.33984375 C44.2268789,3.33984375 46.1386055,4.83887695 46.7639355,6.89276953 C46.3033711,7.0010918 45.8467031,7.14759961 45.3997207,7.33674609 C44.5503984,7.69600195 44.153291,8.67580078 44.5125469,9.52512305 C44.8718027,10.3744453 45.8510449,10.7718867 46.7008125,10.4126309 C49.9845469,9.02325586 53.6601562,11.4441973 53.6601562,15.0292969 C53.6601562,17.7915703 51.4126641,20.0390625 48.6503906,20.0390625 Z" id="Fill-1"></path>
        </g>
    </g>
</svg>