<?xml version="1.0" encoding="UTF-8"?>
<svg width="120px" height="120px" viewBox="0 0 120 120" version="1.1" xmlns="http://www.w3.org/2000/svg" xmlns:xlink="http://www.w3.org/1999/xlink">
    <title>token_fish</title>
    <g id="Page-1" stroke="none" stroke-width="1" fill="none" fill-rule="evenodd">
        <path d="M68.6629854,9.88687816 C78.9511851,7.24814963 95.3871617,4.61458748 105.033654,5.04684126 C108.975817,5.22249818 111.344602,5.91285569 112.716922,7.28517535 C114.084936,8.65426602 114.774433,11.0137948 114.953534,14.9380908 C115.082263,17.7886409 114.943416,21.4119954 114.538286,25.7080555 C113.76376,33.9269049 112.123219,43.4489735 110.153106,51.1776626 C105.230407,70.4766747 101.258107,71.1762886 88.9746079,61.5549824 C84.9543033,58.4049975 80.1099611,54.0921466 75.1538959,49.258783 L75.1538959,49.258783 L69.3585093,55.0431911 L87.4886279,73.1733097 C88.7475025,74.4321843 88.7475025,76.4722585 87.4886279,77.7309178 C86.2299686,78.9889314 84.1890333,78.9889314 82.931235,77.7309178 L82.931235,77.7309178 L64.7965958,59.5964939 L60.2348976,64.1497967 L73.8151577,77.7300568 C75.0740323,78.9889314 75.0740323,81.0290056 73.8151577,82.2876649 C72.5571442,83.5465395 70.5164242,83.5456784 69.2584107,82.2876649 L69.2584107,82.2876649 L55.6731995,68.7024537 L51.111286,73.2548955 L60.1431944,82.2868039 C61.402069,83.5456784 61.402069,85.5863985 60.1431944,86.845273 C58.8851809,88.1041476 56.8444608,88.1041476 55.5864473,86.845273 L55.5864473,86.845273 L46.5495878,77.8090593 L40.4498153,83.8972075 L40.4498153,111.777361 C40.4498153,113.271737 39.4212752,114.570005 37.967585,114.914 C37.7193835,114.971906 37.4713973,115.000537 37.225779,115.000537 C36.0267483,115.000537 34.8991859,114.328692 34.3440153,113.218781 C28.4192539,101.369904 18.631332,91.5811213 6.78159388,85.6572209 C5.44457782,84.9877442 4.74345701,83.4884177 5.08637548,82.0336512 C5.42950921,80.578239 6.72777742,79.551421 8.22301387,79.551421 L8.22301387,79.551421 L35.6786635,79.551421 L41.9911186,73.2499444 L32.798622,64.0574477 C31.5397474,62.7985731 31.5397474,60.757853 32.798622,59.4998395 C34.0572813,58.240965 36.0973555,58.240965 37.3562301,59.4998395 L37.3562301,59.4998395 L46.5536779,68.6972873 L51.1155913,64.1448456 L37.3562301,50.3854843 C36.0973555,49.1257487 36.0973555,47.0858897 37.3562301,45.8270152 C38.6140283,44.5690016 40.6549636,44.5690016 41.9138382,45.8270152 L41.9138382,45.8270152 L55.6781506,59.5915428 L60.2389877,55.0380247 L41.9138382,36.7117989 C40.6549636,35.4540007 40.6549636,33.4139264 41.9138382,32.1550518 C43.1724975,30.8963925 45.2125718,30.8963925 46.4712311,32.1550518 L46.4712311,32.1550518 L64.8009011,50.4847219 L70.5986557,44.6977306 C65.9183461,39.888692 61.7316409,35.1915916 58.6229871,31.2444774 C52.318712,23.242616 51.9824668,20.308758 52.5593792,18.3302498 C53.2303628,16.0245375 55.6688941,13.2185474 68.6629854,9.88687816 Z M34.0034648,85.9977715 L19.6329639,85.9977715 C22.3631804,88.0107222 24.9431413,90.2307587 27.3564865,92.6441039 C29.7704775,95.0572339 31.990514,97.6380559 34.0034648,100.367411 L34.0034648,100.367411 L34.0034648,85.9977715 Z M108.087846,11.9133907 C107.367136,11.6940348 105.174223,11.2574757 99.58054,11.5349533 C89.8843213,12.0160725 75.8509267,14.3764623 66.5953571,17.1428435 C61.8190389,18.5707017 59.8035049,19.6545651 59.0089587,20.1944518 C59.4149501,21.1764946 60.6527286,23.5058861 64.3989998,28.1508921 C67.797832,32.3653665 72.4477892,37.4643682 77.4914675,42.5089077 C82.5351459,47.5543082 87.6332865,52.2042653 91.845393,55.6030975 C96.4912601,59.3508756 98.8195753,60.587793 99.8026944,60.9939997 C100.342366,60.1994535 101.425583,58.1821974 102.854088,53.4058792 C105.620684,44.1520317 107.983442,30.116915 108.465422,20.4206962 C108.7429,14.8270137 108.30634,12.6332396 108.087846,11.9133907 Z M79.2885067,20.4516945 C83.0571656,16.6821746 89.1915959,16.6821746 92.9611158,20.4516945 C96.7299899,24.2214297 96.7299899,30.3547837 92.9611158,34.1236578 C89.1915959,37.8942541 83.0571656,37.8942541 79.2885067,34.1236578 C75.508654,30.3455273 75.5095151,24.2298251 79.2885067,20.4516945 Z M88.4028619,25.0093026 C87.1457094,23.7521502 85.1015451,23.7530113 83.8452538,25.0093026 C82.5855181,26.2690383 82.5855181,28.3071751 83.8452538,29.5669108 C85.1021909,30.8232021 87.1465705,30.8232021 88.4028619,29.5669108 C89.6597991,28.3106194 89.6597991,26.2664551 88.4028619,25.0093026 Z" id="Combined-Shape" fill="#FFFFFF"></path>
    </g>
</svg>