<?xml version="1.0" encoding="UTF-8"?>
<svg width="120px" height="120px" viewBox="0 0 120 120" version="1.1" xmlns="http://www.w3.org/2000/svg" xmlns:xlink="http://www.w3.org/1999/xlink">
    <title>token_bone</title>
    <g id="Page-1" stroke="none" stroke-width="1" fill="none" fill-rule="evenodd">
        <path d="M101.835879,18.1482227 C100.440039,10.6748828 93.8681836,5 85.9960938,5 C77.1112305,5 69.8828125,12.228418 69.8828125,21.1132812 C69.8828125,24.1101367 70.7095312,27.009668 72.2486719,29.5224805 L72.0630469,29.70875 C64.2835547,37.488457 37.7310156,64.0409961 29.5216211,72.2478125 C27.0088086,70.7086719 24.1101367,69.8828125 21.1132812,69.8828125 C12.228418,69.8828125 5,77.1112305 5,85.9960938 C5,93.8681836 10.6748828,100.440039 18.1482227,101.835879 C19.5707031,109.468633 26.2837109,115 34.0039062,115 C42.8887695,115 50.1171875,107.771582 50.1171875,98.8867188 C50.1171875,95.8898633 49.2904688,92.990332 47.7513281,90.4775195 L90.4775195,47.7513281 C92.990332,49.2904687 95.8898633,50.1171875 98.8867188,50.1171875 C107.771582,50.1171875 115,42.8887695 115,34.0039062 C115,26.2040039 109.395586,19.5565234 101.835879,18.1482227 Z M98.8867188,43.671875 C94.900293,43.671875 91.4520508,41.2523047 89.9773633,37.76625 C89.283418,36.127207 87.3934375,35.36 85.7535352,36.0533008 C84.1144922,36.7466016 83.3475,38.6372266 84.0405859,40.2762695 C84.5022852,41.3681055 85.0812891,42.3937695 85.7636328,43.3504688 C83.2710156,45.8422266 43.7374023,85.3758398 41.2222266,87.8910156 C40.0010547,89.1121875 39.9591602,91.0784375 41.1272656,92.3498828 C42.7680273,94.1367383 43.671875,96.4579102 43.671875,98.8867188 C43.671875,104.217422 39.3346094,108.554688 34.0039062,108.554688 C28.6732031,108.554688 24.3359375,104.217422 24.3359375,98.8867188 C24.3359375,98.8364453 24.3309961,98.7876758 24.328418,98.7382617 C24.3486133,97.5213867 24.5986914,96.295918 25.0945508,95.124375 C25.7878516,93.485332 25.0208594,91.594707 23.3818164,90.9014062 C21.7427734,90.2074609 19.8510742,90.9744531 19.1577734,92.6143555 C18.7927539,93.4769531 18.5108789,94.3573828 18.3018359,95.2461914 C14.3381836,94.0394141 11.4453125,90.3492578 11.4453125,85.9960938 C11.4453125,80.6653906 15.7825781,76.328125 21.1132812,76.328125 C23.5412305,76.328125 25.8624023,77.2311133 27.6492578,78.871875 C28.9207031,80.0391211 30.8852344,79.9972266 32.1064063,78.7777734 C36.5476563,74.3391016 73.715625,37.1711328 78.7803516,32.1064063 C80.0367578,30.8476367 80.0391211,28.8049023 78.7812109,27.5476367 L78.7719727,27.5383984 C77.1950195,25.7667969 76.328125,23.4916016 76.328125,21.1132812 C76.328125,15.7825781 80.6653906,11.4453125 85.9960938,11.4453125 C90.3501172,11.4453125 94.0394141,14.3381836 95.2461914,18.3018359 C94.3573828,18.5108789 93.4760938,18.7936133 92.6134961,19.1586328 C90.9744531,19.8519336 90.2081055,21.7427734 90.9014062,23.3818164 C91.594707,25.0208594 93.4844727,25.7878516 95.124375,25.0945508 C101.461406,22.4133008 108.554688,27.085293 108.554688,34.0039062 C108.554688,39.3346094 104.217422,43.671875 98.8867188,43.671875 Z" id="Fill-1" fill="#FFFFFF"></path>
    </g>
</svg>